<svg id="error" xmlns="http://www.w3.org/2000/svg" xmlns:xlink="http://www.w3.org/1999/xlink" viewBox="0 0 272 185"><defs><linearGradient id="linear-gradient" x1="459.96" y1="490.67" x2="540.04" y2="490.67" gradientUnits="userSpaceOnUse"><stop offset="0" stop-color="#ffb74d"/><stop offset="1" stop-color="#fb8c00"/></linearGradient><linearGradient id="linear-gradient-2" x1="105.78" y1="174.05" x2="166.22" y2="113.6" xlink:href="#linear-gradient"/><linearGradient id="linear-gradient-3" x1="144.99" y1="133.85" x2="173.54" y2="113.86" gradientUnits="userSpaceOnUse"><stop offset="0" stop-color="#333"/><stop offset="1"/></linearGradient><linearGradient id="linear-gradient-4" x1="94.55" y1="126.68" x2="165.96" y2="76.68" xlink:href="#linear-gradient-3"/><linearGradient id="linear-gradient-5" x1="468.62" y1="473.67" x2="512.62" y2="442.86" xlink:href="#linear-gradient-3"/></defs><g id="background"><circle cx="138" cy="92.5" r="92.5" fill="#dee3e7"/><rect x="189" y="36.5" width="62" height="18" rx="8" fill="#dee3e7"/><rect x="179" y="74.5" width="62" height="18" rx="8" fill="#dee3e7"/><rect x="210" y="107.5" width="62" height="18" rx="8" fill="#dee3e7"/><rect x="4" y="77.5" width="62" height="18" rx="8" fill="#dee3e7"/><rect y="112.5" width="62" height="18" rx="8" fill="#dee3e7"/><rect x="24" y="150.5" width="62" height="18" rx="8" fill="#dee3e7"/></g><g id="icon"><path d="M540,542.49H460l16.4-57.75v0l9.66-34,2.9-10.2a2.35,2.35,0,0,1,2.26-1.71h17.64a2.33,2.33,0,0,1,1.24.36,2.29,2.29,0,0,1,1,1.35l8,28.05,4.3,15.12h0L531.65,513l4.3,15.12Z" transform="translate(-364 -407.5)" stroke="#2d2d2d" stroke-linecap="round" stroke-linejoin="round" stroke-width="2" stroke-dasharray="100 0 0 5" fill="url(#linear-gradient)"/><rect x="83" y="134.99" width="106" height="17.67" rx="2.36" fill="url(#linear-gradient-2)" stroke-linecap="round" stroke-linejoin="round" stroke-width="2" stroke="#2d2d2d"/><polygon points="171.95 120.57 161.28 134.99 145.79 134.99 167.65 105.45 171.95 120.57" opacity="0.4" fill="url(#linear-gradient-3)"/><polygon points="159.34 76.22 159.34 76.23 115.86 134.99 100.36 134.99 155.04 61.09 159.34 76.22" opacity="0.4" fill="url(#linear-gradient-4)"/><path d="M510.06,439.2l-33.7,45.52,9.66-34,8.81-11.91h14A2.33,2.33,0,0,1,510.06,439.2Z" transform="translate(-364 -407.5)" opacity="0.4" fill="url(#linear-gradient-5)"/><path d="M540,542.49H528.77L500.84,438.84h8a2.33,2.33,0,0,1,1.24.36,2.29,2.29,0,0,1,1,1.35l8,28.05,4.3,15.12h0L531.65,513l4.3,15.12Z" transform="translate(-364 -407.5)" fill="#303030" opacity="0.2"/><path d="M553,544.84v13a2.36,2.36,0,0,1-2.36,2.36h-6.17l.38-17.67h5.79A2.36,2.36,0,0,1,553,544.84Z" transform="translate(-364 -407.5)" fill="#303030" opacity="0.2"/></g><g id="lines"><line x1="86" y1="45.5" x2="55" y2="45.5" fill="none" stroke="#000" stroke-linecap="round" stroke-linejoin="round" stroke-width="2"/><line x1="43" y1="61.5" x2="58" y2="61.5" fill="none" stroke="#000" stroke-linecap="round" stroke-linejoin="round" stroke-width="2"/><line x1="62" y1="61.5" x2="62" y2="61.5" fill="none" stroke="#000" stroke-linecap="round" stroke-linejoin="round" stroke-width="2"/><line x1="58" y1="77.5" x2="66" y2="77.5" fill="none" stroke="#000" stroke-linecap="round" stroke-linejoin="round" stroke-width="2"/><line x1="51" y1="77.54" x2="51" y2="77.54" fill="none" stroke="#000" stroke-linecap="round" stroke-linejoin="round" stroke-width="2"/><line x1="29" y1="77.5" x2="44" y2="77.5" fill="none" stroke="#000" stroke-linecap="round" stroke-linejoin="round" stroke-width="2"/><line x1="240.64" y1="79.2" x2="209.64" y2="79.2" fill="none" stroke="#000" stroke-linecap="round" stroke-linejoin="round" stroke-width="2"/><line x1="197.64" y1="95.2" x2="212.64" y2="95.2" fill="none" stroke="#000" stroke-linecap="round" stroke-linejoin="round" stroke-width="2"/><line x1="216.64" y1="95.2" x2="216.64" y2="95.2" fill="none" stroke="#000" stroke-linecap="round" stroke-linejoin="round" stroke-width="2"/><line x1="212.64" y1="111.2" x2="220.64" y2="111.2" fill="none" stroke="#000" stroke-linecap="round" stroke-linejoin="round" stroke-width="2"/><line x1="205.64" y1="111.23" x2="205.64" y2="111.23" fill="none" stroke="#000" stroke-linecap="round" stroke-linejoin="round" stroke-width="2"/><line x1="183.64" y1="111.2" x2="198.64" y2="111.2" fill="none" stroke="#000" stroke-linecap="round" stroke-linejoin="round" stroke-width="2"/></g></svg>